<svg width="18" height="20" viewBox="0 0 18 20" fill="none" xmlns="http://www.w3.org/2000/svg">
<path fill-rule="evenodd" clip-rule="evenodd" d="M0.166504 8.31776C0.166504 3.71789 4.01039 0 8.65995 0C13.3226 0 17.1665 3.71789 17.1665 8.31776C17.1665 10.6357 16.3235 12.7876 14.936 14.6116C13.4053 16.6235 11.5187 18.3765 9.39505 19.7524C8.90901 20.0704 8.47038 20.0944 7.93695 19.7524C5.80124 18.3765 3.91459 16.6235 2.397 14.6116C1.00849 12.7876 0.166504 10.6357 0.166504 8.31776ZM5.86073 8.57675C5.86073 10.1177 7.11816 11.3297 8.65995 11.3297C10.2027 11.3297 11.4723 10.1177 11.4723 8.57675C11.4723 7.0478 10.2027 5.77683 8.65995 5.77683C7.11816 5.77683 5.86073 7.0478 5.86073 8.57675Z" fill="#25A59E"/>
</svg>
