<svg width="331" height="32" viewBox="0 0 331 32" fill="none" xmlns="http://www.w3.org/2000/svg">
<g opacity="0.7">
<path fill-rule="evenodd" clip-rule="evenodd" d="M3.8335 14.3178C3.8335 9.71789 7.67738 6 12.3269 6C16.9896 6 20.8335 9.71789 20.8335 14.3178C20.8335 16.6357 19.9905 18.7876 18.603 20.6116C17.0723 22.6235 15.1857 24.3765 13.062 25.7524C12.576 26.0704 12.1374 26.0944 11.6039 25.7524C9.46823 24.3765 7.58158 22.6235 6.064 20.6116C4.67548 18.7876 3.8335 16.6357 3.8335 14.3178ZM9.52772 14.5768C9.52772 16.1177 10.7852 17.3297 12.3269 17.3297C13.8697 17.3297 15.1393 16.1177 15.1393 14.5768C15.1393 13.0478 13.8697 11.7768 12.3269 11.7768C10.7852 11.7768 9.52772 13.0478 9.52772 14.5768Z" fill="#25A59E"/>
<path d="M35.1415 22.234C34.6975 22.234 34.2625 22.159 33.8365 22.009C33.4165 21.859 33.0355 21.637 32.6935 21.343L33.8905 19.903C34.0405 20.029 34.2205 20.137 34.4305 20.227C34.6405 20.317 34.8775 20.362 35.1415 20.362C35.5015 20.362 35.8285 20.269 36.1225 20.083C36.4225 19.891 36.6625 19.642 36.8425 19.336C37.0225 19.024 37.1125 18.691 37.1125 18.337V9.4H38.9845V18.337C38.9845 19.039 38.8105 19.687 38.4625 20.281C38.1145 20.869 37.6495 21.343 37.0675 21.703C36.4915 22.057 35.8495 22.234 35.1415 22.234ZM48.1499 13H50.0219V22H48.1409L48.0689 20.695C47.8049 21.157 47.4479 21.529 46.9979 21.811C46.5479 22.093 46.0169 22.234 45.4049 22.234C44.7449 22.234 44.1239 22.111 43.5419 21.865C42.9599 21.613 42.4469 21.265 42.0029 20.821C41.5649 20.377 41.2229 19.867 40.9769 19.291C40.7309 18.709 40.6079 18.085 40.6079 17.419C40.6079 16.777 40.7279 16.174 40.9679 15.61C41.2079 15.04 41.5409 14.542 41.9669 14.116C42.3929 13.69 42.8849 13.357 43.4429 13.117C44.0069 12.871 44.6099 12.748 45.2519 12.748C45.9059 12.748 46.4819 12.898 46.9799 13.198C47.4839 13.492 47.9009 13.87 48.2309 14.332L48.1499 13ZM45.3599 20.425C45.8879 20.425 46.3499 20.296 46.7459 20.038C47.1419 19.774 47.4479 19.42 47.6639 18.976C47.8859 18.532 47.9969 18.04 47.9969 17.5C47.9969 16.954 47.8859 16.459 47.6639 16.015C47.4419 15.571 47.1329 15.22 46.7369 14.962C46.3469 14.698 45.8879 14.566 45.3599 14.566C44.8379 14.566 44.3609 14.698 43.9289 14.962C43.4969 15.226 43.1549 15.58 42.9029 16.024C42.6509 16.468 42.5249 16.96 42.5249 17.5C42.5249 18.046 42.6539 18.541 42.9119 18.985C43.1759 19.423 43.5209 19.774 43.9469 20.038C44.3789 20.296 44.8499 20.425 45.3599 20.425ZM55.8218 22H53.9588L50.9438 13H52.7798L54.9038 19.318L57.0098 13H58.8998L61.0058 19.318L63.1208 13H64.9568L61.9508 22H60.0698L57.9458 15.637L55.8218 22ZM73.0053 13H74.8773V22H72.9963L72.9243 20.695C72.6603 21.157 72.3033 21.529 71.8533 21.811C71.4033 22.093 70.8723 22.234 70.2603 22.234C69.6003 22.234 68.9793 22.111 68.3973 21.865C67.8153 21.613 67.3023 21.265 66.8583 20.821C66.4203 20.377 66.0783 19.867 65.8323 19.291C65.5863 18.709 65.4633 18.085 65.4633 17.419C65.4633 16.777 65.5833 16.174 65.8233 15.61C66.0633 15.04 66.3963 14.542 66.8223 14.116C67.2483 13.69 67.7403 13.357 68.2983 13.117C68.8623 12.871 69.4653 12.748 70.1073 12.748C70.7613 12.748 71.3373 12.898 71.8353 13.198C72.3393 13.492 72.7563 13.87 73.0863 14.332L73.0053 13ZM70.2153 20.425C70.7433 20.425 71.2053 20.296 71.6013 20.038C71.9973 19.774 72.3033 19.42 72.5193 18.976C72.7413 18.532 72.8523 18.04 72.8523 17.5C72.8523 16.954 72.7413 16.459 72.5193 16.015C72.2973 15.571 71.9883 15.22 71.5923 14.962C71.2023 14.698 70.7433 14.566 70.2153 14.566C69.6933 14.566 69.2163 14.698 68.7843 14.962C68.3523 15.226 68.0103 15.58 67.7583 16.024C67.5063 16.468 67.3803 16.96 67.3803 17.5C67.3803 18.046 67.5093 18.541 67.7673 18.985C68.0313 19.423 68.3763 19.774 68.8023 20.038C69.2343 20.296 69.7053 20.425 70.2153 20.425ZM90.5285 9.4V11.272H86.5145V22H84.6425V11.272H80.6375V9.4H90.5285ZM94.9243 22.234C94.0963 22.234 93.3403 22.021 92.6563 21.595C91.9783 21.169 91.4353 20.599 91.0273 19.885C90.6253 19.165 90.4243 18.37 90.4243 17.5C90.4243 16.84 90.5413 16.225 90.7753 15.655C91.0093 15.079 91.3303 14.575 91.7383 14.143C92.1523 13.705 92.6323 13.363 93.1783 13.117C93.7243 12.871 94.3063 12.748 94.9243 12.748C95.6143 12.748 96.2473 12.892 96.8233 13.18C97.3993 13.462 97.8913 13.855 98.2993 14.359C98.7073 14.857 99.0073 15.433 99.1993 16.087C99.3913 16.735 99.4483 17.425 99.3703 18.157H92.4313C92.5093 18.571 92.6593 18.946 92.8813 19.282C93.1093 19.612 93.3973 19.873 93.7453 20.065C94.0993 20.257 94.4923 20.356 94.9243 20.362C95.3803 20.362 95.7943 20.248 96.1663 20.02C96.5443 19.792 96.8533 19.477 97.0933 19.075L98.9923 19.516C98.6323 20.314 98.0893 20.968 97.3633 21.478C96.6373 21.982 95.8243 22.234 94.9243 22.234ZM92.3683 16.726H97.4803C97.4203 16.294 97.2673 15.904 97.0213 15.556C96.7813 15.202 96.4783 14.923 96.1123 14.719C95.7523 14.509 95.3563 14.404 94.9243 14.404C94.4983 14.404 94.1023 14.506 93.7363 14.71C93.3763 14.914 93.0763 15.193 92.8363 15.547C92.6023 15.895 92.4463 16.288 92.3683 16.726ZM108.961 16.357V22H107.089V16.816C107.089 16.414 106.99 16.048 106.792 15.718C106.6 15.388 106.339 15.127 106.009 14.935C105.685 14.737 105.319 14.638 104.911 14.638C104.515 14.638 104.152 14.737 103.822 14.935C103.492 15.127 103.228 15.388 103.03 15.718C102.832 16.048 102.733 16.414 102.733 16.816V22H100.861V13H102.733V13.954C103.045 13.582 103.429 13.288 103.885 13.072C104.341 12.856 104.833 12.748 105.361 12.748C106.027 12.748 106.633 12.91 107.179 13.234C107.725 13.558 108.157 13.993 108.475 14.539C108.799 15.085 108.961 15.691 108.961 16.357ZM117.43 13H119.302V22.234C119.302 22.852 119.17 23.422 118.906 23.944C118.648 24.466 118.297 24.916 117.853 25.294C117.409 25.678 116.899 25.975 116.323 26.185C115.753 26.395 115.156 26.5 114.532 26.5C113.902 26.5 113.296 26.365 112.714 26.095C112.132 25.831 111.619 25.471 111.175 25.015C110.737 24.559 110.41 24.043 110.194 23.467L111.913 22.693C112.033 23.065 112.225 23.395 112.489 23.683C112.759 23.971 113.071 24.199 113.425 24.367C113.785 24.535 114.154 24.619 114.532 24.619C114.904 24.619 115.261 24.559 115.603 24.439C115.951 24.325 116.26 24.163 116.53 23.953C116.806 23.743 117.025 23.491 117.187 23.197C117.349 22.903 117.43 22.582 117.43 22.234V20.713C117.136 21.169 116.758 21.538 116.296 21.82C115.834 22.096 115.297 22.234 114.685 22.234C114.049 22.234 113.449 22.111 112.885 21.865C112.321 21.619 111.826 21.28 111.4 20.848C110.974 20.41 110.641 19.906 110.401 19.336C110.161 18.766 110.041 18.154 110.041 17.5C110.041 16.846 110.161 16.234 110.401 15.664C110.641 15.088 110.974 14.584 111.4 14.152C111.826 13.714 112.321 13.372 112.885 13.126C113.449 12.88 114.049 12.757 114.685 12.757C115.297 12.757 115.834 12.898 116.296 13.18C116.758 13.456 117.136 13.825 117.43 14.287V13ZM114.703 20.425C115.225 20.425 115.681 20.293 116.071 20.029C116.461 19.759 116.764 19.402 116.98 18.958C117.196 18.514 117.304 18.028 117.304 17.5C117.304 16.96 117.193 16.471 116.971 16.033C116.755 15.589 116.452 15.235 116.062 14.971C115.672 14.701 115.219 14.566 114.703 14.566C114.199 14.566 113.737 14.698 113.317 14.962C112.903 15.226 112.573 15.58 112.327 16.024C112.081 16.468 111.958 16.96 111.958 17.5C111.958 18.04 112.081 18.532 112.327 18.976C112.579 19.42 112.912 19.774 113.326 20.038C113.746 20.296 114.205 20.425 114.703 20.425ZM128.306 13H130.178V22H128.297L128.225 20.695C127.961 21.157 127.604 21.529 127.154 21.811C126.704 22.093 126.173 22.234 125.561 22.234C124.901 22.234 124.28 22.111 123.698 21.865C123.116 21.613 122.603 21.265 122.159 20.821C121.721 20.377 121.379 19.867 121.133 19.291C120.887 18.709 120.764 18.085 120.764 17.419C120.764 16.777 120.884 16.174 121.124 15.61C121.364 15.04 121.697 14.542 122.123 14.116C122.549 13.69 123.041 13.357 123.599 13.117C124.163 12.871 124.766 12.748 125.408 12.748C126.062 12.748 126.638 12.898 127.136 13.198C127.64 13.492 128.057 13.87 128.387 14.332L128.306 13ZM125.516 20.425C126.044 20.425 126.506 20.296 126.902 20.038C127.298 19.774 127.604 19.42 127.82 18.976C128.042 18.532 128.153 18.04 128.153 17.5C128.153 16.954 128.042 16.459 127.82 16.015C127.598 15.571 127.289 15.22 126.893 14.962C126.503 14.698 126.044 14.566 125.516 14.566C124.994 14.566 124.517 14.698 124.085 14.962C123.653 15.226 123.311 15.58 123.059 16.024C122.807 16.468 122.681 16.96 122.681 17.5C122.681 18.046 122.81 18.541 123.068 18.985C123.332 19.423 123.677 19.774 124.103 20.038C124.535 20.296 125.006 20.425 125.516 20.425ZM140.144 16.357V22H138.272V16.816C138.272 16.414 138.173 16.048 137.975 15.718C137.783 15.388 137.522 15.127 137.192 14.935C136.868 14.737 136.502 14.638 136.094 14.638C135.698 14.638 135.335 14.737 135.005 14.935C134.675 15.127 134.411 15.388 134.213 15.718C134.015 16.048 133.916 16.414 133.916 16.816V22H132.044V8.5H133.916V13.954C134.228 13.582 134.612 13.288 135.068 13.072C135.524 12.856 136.016 12.748 136.544 12.748C137.21 12.748 137.816 12.91 138.362 13.234C138.908 13.558 139.34 13.993 139.658 14.539C139.982 15.085 140.144 15.691 140.144 16.357ZM141.581 23.008L142.139 19.966H144.011L142.823 23.008H141.581ZM150.771 22V9.4H152.643V22H150.771ZM163.172 16.357V22H161.3V16.816C161.3 16.414 161.201 16.048 161.003 15.718C160.811 15.388 160.55 15.127 160.22 14.935C159.896 14.737 159.53 14.638 159.122 14.638C158.726 14.638 158.363 14.737 158.033 14.935C157.703 15.127 157.439 15.388 157.241 15.718C157.043 16.048 156.944 16.414 156.944 16.816V22H155.072V13H156.944V13.954C157.256 13.582 157.64 13.288 158.096 13.072C158.552 12.856 159.044 12.748 159.572 12.748C160.238 12.748 160.844 12.91 161.39 13.234C161.936 13.558 162.368 13.993 162.686 14.539C163.01 15.085 163.172 15.691 163.172 16.357ZM171.803 8.5H173.675V22H171.803V20.677C171.509 21.145 171.125 21.523 170.651 21.811C170.177 22.093 169.622 22.234 168.986 22.234C168.332 22.234 167.72 22.111 167.15 21.865C166.58 21.619 166.076 21.28 165.638 20.848C165.206 20.41 164.867 19.906 164.621 19.336C164.375 18.766 164.252 18.154 164.252 17.5C164.252 16.846 164.375 16.234 164.621 15.664C164.867 15.088 165.206 14.584 165.638 14.152C166.076 13.714 166.58 13.372 167.15 13.126C167.72 12.88 168.332 12.757 168.986 12.757C169.622 12.757 170.177 12.901 170.651 13.189C171.125 13.471 171.509 13.843 171.803 14.305V8.5ZM169.004 20.425C169.532 20.425 169.994 20.296 170.39 20.038C170.786 19.774 171.092 19.42 171.308 18.976C171.53 18.532 171.641 18.04 171.641 17.5C171.641 16.954 171.53 16.459 171.308 16.015C171.086 15.571 170.777 15.22 170.381 14.962C169.991 14.698 169.532 14.566 169.004 14.566C168.482 14.566 168.005 14.698 167.573 14.962C167.147 15.226 166.805 15.58 166.547 16.024C166.295 16.468 166.169 16.96 166.169 17.5C166.169 18.046 166.298 18.541 166.556 18.985C166.82 19.423 167.165 19.774 167.591 20.038C168.023 20.296 168.494 20.425 169.004 20.425ZM179.668 22.234C178.84 22.234 178.084 22.021 177.4 21.595C176.722 21.169 176.179 20.599 175.771 19.885C175.369 19.165 175.168 18.37 175.168 17.5C175.168 16.84 175.285 16.225 175.519 15.655C175.753 15.079 176.074 14.575 176.482 14.143C176.896 13.705 177.376 13.363 177.922 13.117C178.468 12.871 179.05 12.748 179.668 12.748C180.496 12.748 181.249 12.961 181.927 13.387C182.611 13.813 183.154 14.386 183.556 15.106C183.964 15.826 184.168 16.624 184.168 17.5C184.168 18.154 184.051 18.766 183.817 19.336C183.583 19.906 183.259 20.41 182.845 20.848C182.437 21.28 181.96 21.619 181.414 21.865C180.874 22.111 180.292 22.234 179.668 22.234ZM179.668 20.362C180.166 20.362 180.613 20.23 181.009 19.966C181.405 19.702 181.717 19.354 181.945 18.922C182.179 18.484 182.296 18.01 182.296 17.5C182.296 16.978 182.176 16.498 181.936 16.06C181.702 15.622 181.387 15.274 180.991 15.016C180.595 14.752 180.154 14.62 179.668 14.62C179.176 14.62 178.729 14.752 178.327 15.016C177.931 15.28 177.616 15.631 177.382 16.069C177.154 16.507 177.04 16.984 177.04 17.5C177.04 18.034 177.16 18.517 177.4 18.949C177.64 19.381 177.958 19.726 178.354 19.984C178.756 20.236 179.194 20.362 179.668 20.362ZM193.722 16.357V22H191.85V16.816C191.85 16.414 191.751 16.048 191.553 15.718C191.361 15.388 191.1 15.127 190.77 14.935C190.446 14.737 190.08 14.638 189.672 14.638C189.276 14.638 188.913 14.737 188.583 14.935C188.253 15.127 187.989 15.388 187.791 15.718C187.593 16.048 187.494 16.414 187.494 16.816V22H185.622V13H187.494V13.954C187.806 13.582 188.19 13.288 188.646 13.072C189.102 12.856 189.594 12.748 190.122 12.748C190.788 12.748 191.394 12.91 191.94 13.234C192.486 13.558 192.918 13.993 193.236 14.539C193.56 15.085 193.722 15.691 193.722 16.357ZM199.303 22.234C198.475 22.234 197.719 22.021 197.035 21.595C196.357 21.169 195.814 20.599 195.406 19.885C195.004 19.165 194.803 18.37 194.803 17.5C194.803 16.84 194.92 16.225 195.154 15.655C195.388 15.079 195.709 14.575 196.117 14.143C196.531 13.705 197.011 13.363 197.557 13.117C198.103 12.871 198.685 12.748 199.303 12.748C199.993 12.748 200.626 12.892 201.202 13.18C201.778 13.462 202.27 13.855 202.678 14.359C203.086 14.857 203.386 15.433 203.578 16.087C203.77 16.735 203.827 17.425 203.749 18.157H196.81C196.888 18.571 197.038 18.946 197.26 19.282C197.488 19.612 197.776 19.873 198.124 20.065C198.478 20.257 198.871 20.356 199.303 20.362C199.759 20.362 200.173 20.248 200.545 20.02C200.923 19.792 201.232 19.477 201.472 19.075L203.371 19.516C203.011 20.314 202.468 20.968 201.742 21.478C201.016 21.982 200.203 22.234 199.303 22.234ZM196.747 16.726H201.859C201.799 16.294 201.646 15.904 201.4 15.556C201.16 15.202 200.857 14.923 200.491 14.719C200.131 14.509 199.735 14.404 199.303 14.404C198.877 14.404 198.481 14.506 198.115 14.71C197.755 14.914 197.455 15.193 197.215 15.547C196.981 15.895 196.825 16.288 196.747 16.726ZM207.975 22.171C207.501 22.141 207.039 22.045 206.589 21.883C206.139 21.721 205.743 21.502 205.401 21.226C205.065 20.944 204.813 20.614 204.645 20.236L206.238 19.552C206.316 19.714 206.451 19.873 206.643 20.029C206.841 20.185 207.072 20.314 207.336 20.416C207.6 20.512 207.876 20.56 208.164 20.56C208.446 20.56 208.707 20.521 208.947 20.443C209.193 20.359 209.394 20.233 209.55 20.065C209.706 19.897 209.784 19.696 209.784 19.462C209.784 19.198 209.694 18.994 209.514 18.85C209.34 18.7 209.121 18.586 208.857 18.508C208.593 18.43 208.329 18.355 208.065 18.283C207.477 18.151 206.937 17.971 206.445 17.743C205.959 17.509 205.572 17.212 205.284 16.852C204.996 16.486 204.852 16.039 204.852 15.511C204.852 14.935 205.008 14.437 205.32 14.017C205.632 13.591 206.04 13.264 206.544 13.036C207.054 12.808 207.597 12.694 208.173 12.694C208.893 12.694 209.553 12.847 210.153 13.153C210.753 13.459 211.212 13.879 211.53 14.413L210.045 15.295C209.955 15.115 209.82 14.953 209.64 14.809C209.46 14.665 209.256 14.551 209.028 14.467C208.8 14.377 208.563 14.326 208.317 14.314C208.011 14.302 207.726 14.338 207.462 14.422C207.204 14.5 206.997 14.626 206.841 14.8C206.685 14.974 206.607 15.196 206.607 15.466C206.607 15.73 206.7 15.928 206.886 16.06C207.072 16.186 207.306 16.288 207.588 16.366C207.876 16.444 208.17 16.531 208.47 16.627C209.004 16.795 209.505 17.002 209.973 17.248C210.441 17.488 210.819 17.785 211.107 18.139C211.395 18.493 211.533 18.925 211.521 19.435C211.521 19.999 211.35 20.494 211.008 20.92C210.672 21.346 210.234 21.67 209.694 21.892C209.154 22.114 208.581 22.207 207.975 22.171ZM212.904 13H214.776V22H212.904V13ZM213.858 11.695C213.57 11.695 213.33 11.602 213.138 11.416C212.946 11.23 212.85 10.996 212.85 10.714C212.85 10.438 212.946 10.207 213.138 10.021C213.33 9.829 213.567 9.733 213.849 9.733C214.125 9.733 214.359 9.829 214.551 10.021C214.743 10.207 214.839 10.438 214.839 10.714C214.839 10.996 214.743 11.23 214.551 11.416C214.365 11.602 214.134 11.695 213.858 11.695ZM223.773 13H225.645V22H223.764L223.692 20.695C223.428 21.157 223.071 21.529 222.621 21.811C222.171 22.093 221.64 22.234 221.028 22.234C220.368 22.234 219.747 22.111 219.165 21.865C218.583 21.613 218.07 21.265 217.626 20.821C217.188 20.377 216.846 19.867 216.6 19.291C216.354 18.709 216.231 18.085 216.231 17.419C216.231 16.777 216.351 16.174 216.591 15.61C216.831 15.04 217.164 14.542 217.59 14.116C218.016 13.69 218.508 13.357 219.066 13.117C219.63 12.871 220.233 12.748 220.875 12.748C221.529 12.748 222.105 12.898 222.603 13.198C223.107 13.492 223.524 13.87 223.854 14.332L223.773 13ZM220.983 20.425C221.511 20.425 221.973 20.296 222.369 20.038C222.765 19.774 223.071 19.42 223.287 18.976C223.509 18.532 223.62 18.04 223.62 17.5C223.62 16.954 223.509 16.459 223.287 16.015C223.065 15.571 222.756 15.22 222.36 14.962C221.97 14.698 221.511 14.566 220.983 14.566C220.461 14.566 219.984 14.698 219.552 14.962C219.12 15.226 218.778 15.58 218.526 16.024C218.274 16.468 218.148 16.96 218.148 17.5C218.148 18.046 218.277 18.541 218.535 18.985C218.799 19.423 219.144 19.774 219.57 20.038C220.002 20.296 220.473 20.425 220.983 20.425Z" fill="#262626"/>
</g>
</svg>
