<svg width="332" height="32" viewBox="0 0 332 32" fill="none" xmlns="http://www.w3.org/2000/svg">
<g opacity="0.7">
<path fill-rule="evenodd" clip-rule="evenodd" d="M4.1665 14.3178C4.1665 9.71789 8.01039 6 12.6599 6C17.3226 6 21.1665 9.71789 21.1665 14.3178C21.1665 16.6357 20.3235 18.7876 18.936 20.6116C17.4053 22.6235 15.5187 24.3765 13.395 25.7524C12.909 26.0704 12.4704 26.0944 11.937 25.7524C9.80124 24.3765 7.91459 22.6235 6.397 20.6116C5.00849 18.7876 4.1665 16.6357 4.1665 14.3178ZM9.86073 14.5768C9.86073 16.1177 11.1182 17.3297 12.6599 17.3297C14.2027 17.3297 15.4723 16.1177 15.4723 14.5768C15.4723 13.0478 14.2027 11.7768 12.6599 11.7768C11.1182 11.7768 9.86073 13.0478 9.86073 14.5768Z" fill="#25A59E"/>
<path d="M39.5785 22.234C38.7265 22.234 37.9255 22.066 37.1755 21.73C36.4255 21.388 35.7655 20.92 35.1955 20.326C34.6315 19.726 34.1875 19.03 33.8635 18.238C33.5455 17.446 33.3865 16.6 33.3865 15.7C33.3865 14.8 33.5455 13.954 33.8635 13.162C34.1875 12.37 34.6315 11.677 35.1955 11.083C35.7655 10.483 36.4255 10.015 37.1755 9.679C37.9255 9.337 38.7265 9.166 39.5785 9.166C40.5985 9.166 41.5375 9.403 42.3955 9.877C43.2535 10.351 43.9645 10.981 44.5285 11.767L42.8635 12.658C42.4735 12.166 41.9905 11.773 41.4145 11.479C40.8385 11.185 40.2265 11.038 39.5785 11.038C38.9785 11.038 38.4175 11.161 37.8955 11.407C37.3735 11.653 36.9145 11.989 36.5185 12.415C36.1225 12.841 35.8135 13.336 35.5915 13.9C35.3695 14.464 35.2585 15.064 35.2585 15.7C35.2585 16.342 35.3695 16.945 35.5915 17.509C35.8135 18.067 36.1225 18.562 36.5185 18.994C36.9205 19.42 37.3825 19.756 37.9045 20.002C38.4265 20.242 38.9845 20.362 39.5785 20.362C40.2385 20.362 40.8535 20.215 41.4235 19.921C41.9995 19.621 42.4795 19.225 42.8635 18.733L44.5285 19.642C43.9645 20.428 43.2535 21.058 42.3955 21.532C41.5375 22 40.5985 22.234 39.5785 22.234ZM52.8071 13H54.6791V22H52.7981L52.7261 20.695C52.4621 21.157 52.1051 21.529 51.6551 21.811C51.2051 22.093 50.6741 22.234 50.0621 22.234C49.4021 22.234 48.7811 22.111 48.1991 21.865C47.6171 21.613 47.1041 21.265 46.6601 20.821C46.2221 20.377 45.8801 19.867 45.6341 19.291C45.3881 18.709 45.2651 18.085 45.2651 17.419C45.2651 16.777 45.3851 16.174 45.6251 15.61C45.8651 15.04 46.1981 14.542 46.6241 14.116C47.0501 13.69 47.5421 13.357 48.1001 13.117C48.6641 12.871 49.2671 12.748 49.9091 12.748C50.5631 12.748 51.1391 12.898 51.6371 13.198C52.1411 13.492 52.5581 13.87 52.8881 14.332L52.8071 13ZM50.0171 20.425C50.5451 20.425 51.0071 20.296 51.4031 20.038C51.7991 19.774 52.1051 19.42 52.3211 18.976C52.5431 18.532 52.6541 18.04 52.6541 17.5C52.6541 16.954 52.5431 16.459 52.3211 16.015C52.0991 15.571 51.7901 15.22 51.3941 14.962C51.0041 14.698 50.5451 14.566 50.0171 14.566C49.4951 14.566 49.0181 14.698 48.5861 14.962C48.1541 15.226 47.8121 15.58 47.5601 16.024C47.3081 16.468 47.1821 16.96 47.1821 17.5C47.1821 18.046 47.3111 18.541 47.5691 18.985C47.8331 19.423 48.1781 19.774 48.6041 20.038C49.0361 20.296 49.5071 20.425 50.0171 20.425ZM58.347 26.5H56.475V13H58.347V14.323C58.647 13.861 59.031 13.486 59.499 13.198C59.967 12.91 60.519 12.766 61.155 12.766C61.809 12.766 62.421 12.889 62.991 13.135C63.567 13.381 64.071 13.723 64.503 14.161C64.935 14.593 65.274 15.094 65.52 15.664C65.766 16.234 65.889 16.846 65.889 17.5C65.889 18.154 65.766 18.769 65.52 19.345C65.274 19.921 64.935 20.428 64.503 20.866C64.071 21.298 63.567 21.637 62.991 21.883C62.421 22.129 61.809 22.252 61.155 22.252C60.519 22.252 59.967 22.108 59.499 21.82C59.031 21.526 58.647 21.151 58.347 20.695V26.5ZM61.137 14.575C60.615 14.575 60.156 14.707 59.76 14.971C59.364 15.235 59.055 15.589 58.833 16.033C58.611 16.471 58.5 16.96 58.5 17.5C58.5 18.04 58.611 18.532 58.833 18.976C59.055 19.42 59.364 19.774 59.76 20.038C60.156 20.302 60.615 20.434 61.137 20.434C61.653 20.434 62.127 20.305 62.559 20.047C62.991 19.783 63.336 19.429 63.594 18.985C63.852 18.541 63.981 18.046 63.981 17.5C63.981 16.966 63.852 16.477 63.594 16.033C63.342 15.589 63 15.235 62.568 14.971C62.136 14.707 61.659 14.575 61.137 14.575ZM69.2279 26.5H67.3559V13H69.2279V14.323C69.5279 13.861 69.9119 13.486 70.3799 13.198C70.8479 12.91 71.3999 12.766 72.0359 12.766C72.6899 12.766 73.3019 12.889 73.8719 13.135C74.4479 13.381 74.9519 13.723 75.3839 14.161C75.8159 14.593 76.1549 15.094 76.4009 15.664C76.6469 16.234 76.7699 16.846 76.7699 17.5C76.7699 18.154 76.6469 18.769 76.4009 19.345C76.1549 19.921 75.8159 20.428 75.3839 20.866C74.9519 21.298 74.4479 21.637 73.8719 21.883C73.3019 22.129 72.6899 22.252 72.0359 22.252C71.3999 22.252 70.8479 22.108 70.3799 21.82C69.9119 21.526 69.5279 21.151 69.2279 20.695V26.5ZM72.0179 14.575C71.4959 14.575 71.0369 14.707 70.6409 14.971C70.2449 15.235 69.9359 15.589 69.7139 16.033C69.4919 16.471 69.3809 16.96 69.3809 17.5C69.3809 18.04 69.4919 18.532 69.7139 18.976C69.9359 19.42 70.2449 19.774 70.6409 20.038C71.0369 20.302 71.4959 20.434 72.0179 20.434C72.5339 20.434 73.0079 20.305 73.4399 20.047C73.8719 19.783 74.2169 19.429 74.4749 18.985C74.7329 18.541 74.8619 18.046 74.8619 17.5C74.8619 16.966 74.7329 16.477 74.4749 16.033C74.2229 15.589 73.8809 15.235 73.4489 14.971C73.0169 14.707 72.5399 14.575 72.0179 14.575ZM85.2212 13H87.0932V22H85.2122L85.1402 20.695C84.8762 21.157 84.5192 21.529 84.0692 21.811C83.6192 22.093 83.0882 22.234 82.4762 22.234C81.8162 22.234 81.1952 22.111 80.6132 21.865C80.0312 21.613 79.5182 21.265 79.0742 20.821C78.6362 20.377 78.2942 19.867 78.0482 19.291C77.8022 18.709 77.6792 18.085 77.6792 17.419C77.6792 16.777 77.7992 16.174 78.0392 15.61C78.2792 15.04 78.6122 14.542 79.0382 14.116C79.4642 13.69 79.9562 13.357 80.5142 13.117C81.0782 12.871 81.6812 12.748 82.3232 12.748C82.9772 12.748 83.5532 12.898 84.0512 13.198C84.5552 13.492 84.9722 13.87 85.3022 14.332L85.2212 13ZM82.4312 20.425C82.9592 20.425 83.4212 20.296 83.8172 20.038C84.2132 19.774 84.5192 19.42 84.7352 18.976C84.9572 18.532 85.0682 18.04 85.0682 17.5C85.0682 16.954 84.9572 16.459 84.7352 16.015C84.5132 15.571 84.2042 15.22 83.8082 14.962C83.4182 14.698 82.9592 14.566 82.4312 14.566C81.9092 14.566 81.4322 14.698 81.0002 14.962C80.5682 15.226 80.2262 15.58 79.9742 16.024C79.7222 16.468 79.5962 16.96 79.5962 17.5C79.5962 18.046 79.7252 18.541 79.9832 18.985C80.2472 19.423 80.5922 19.774 81.0182 20.038C81.4502 20.296 81.9212 20.425 82.4312 20.425ZM95.7243 8.5H97.5963V22H95.7243V20.677C95.4303 21.145 95.0463 21.523 94.5723 21.811C94.0983 22.093 93.5433 22.234 92.9073 22.234C92.2533 22.234 91.6413 22.111 91.0713 21.865C90.5013 21.619 89.9973 21.28 89.5593 20.848C89.1273 20.41 88.7883 19.906 88.5423 19.336C88.2963 18.766 88.1733 18.154 88.1733 17.5C88.1733 16.846 88.2963 16.234 88.5423 15.664C88.7883 15.088 89.1273 14.584 89.5593 14.152C89.9973 13.714 90.5013 13.372 91.0713 13.126C91.6413 12.88 92.2533 12.757 92.9073 12.757C93.5433 12.757 94.0983 12.901 94.5723 13.189C95.0463 13.471 95.4303 13.843 95.7243 14.305V8.5ZM92.9253 20.425C93.4533 20.425 93.9153 20.296 94.3113 20.038C94.7073 19.774 95.0133 19.42 95.2293 18.976C95.4513 18.532 95.5623 18.04 95.5623 17.5C95.5623 16.954 95.4513 16.459 95.2293 16.015C95.0073 15.571 94.6983 15.22 94.3023 14.962C93.9123 14.698 93.4533 14.566 92.9253 14.566C92.4033 14.566 91.9263 14.698 91.4943 14.962C91.0683 15.226 90.7263 15.58 90.4683 16.024C90.2163 16.468 90.0903 16.96 90.0903 17.5C90.0903 18.046 90.2193 18.541 90.4773 18.985C90.7413 19.423 91.0863 19.774 91.5123 20.038C91.9443 20.296 92.4153 20.425 92.9253 20.425ZM103.589 22.234C102.761 22.234 102.005 22.021 101.321 21.595C100.643 21.169 100.1 20.599 99.6923 19.885C99.2903 19.165 99.0893 18.37 99.0893 17.5C99.0893 16.84 99.2063 16.225 99.4403 15.655C99.6743 15.079 99.9953 14.575 100.403 14.143C100.817 13.705 101.297 13.363 101.843 13.117C102.389 12.871 102.971 12.748 103.589 12.748C104.417 12.748 105.17 12.961 105.848 13.387C106.532 13.813 107.075 14.386 107.477 15.106C107.885 15.826 108.089 16.624 108.089 17.5C108.089 18.154 107.972 18.766 107.738 19.336C107.504 19.906 107.18 20.41 106.766 20.848C106.358 21.28 105.881 21.619 105.335 21.865C104.795 22.111 104.213 22.234 103.589 22.234ZM103.589 20.362C104.087 20.362 104.534 20.23 104.93 19.966C105.326 19.702 105.638 19.354 105.866 18.922C106.1 18.484 106.217 18.01 106.217 17.5C106.217 16.978 106.097 16.498 105.857 16.06C105.623 15.622 105.308 15.274 104.912 15.016C104.516 14.752 104.075 14.62 103.589 14.62C103.097 14.62 102.65 14.752 102.248 15.016C101.852 15.28 101.537 15.631 101.303 16.069C101.075 16.507 100.961 16.984 100.961 17.5C100.961 18.034 101.081 18.517 101.321 18.949C101.561 19.381 101.879 19.726 102.275 19.984C102.677 20.236 103.115 20.362 103.589 20.362ZM115.403 19.444L117.077 20.353C116.669 20.923 116.15 21.379 115.52 21.721C114.896 22.063 114.218 22.234 113.486 22.234C112.658 22.234 111.902 22.021 111.218 21.595C110.54 21.169 109.997 20.599 109.589 19.885C109.187 19.165 108.986 18.37 108.986 17.5C108.986 16.84 109.103 16.225 109.337 15.655C109.571 15.079 109.892 14.575 110.3 14.143C110.714 13.705 111.194 13.363 111.74 13.117C112.286 12.871 112.868 12.748 113.486 12.748C114.218 12.748 114.896 12.919 115.52 13.261C116.15 13.603 116.669 14.062 117.077 14.638L115.403 15.547C115.151 15.247 114.857 15.019 114.521 14.863C114.185 14.701 113.84 14.62 113.486 14.62C112.994 14.62 112.547 14.755 112.145 15.025C111.749 15.289 111.434 15.64 111.2 16.078C110.972 16.51 110.858 16.984 110.858 17.5C110.858 18.01 110.975 18.484 111.209 18.922C111.443 19.354 111.758 19.702 112.154 19.966C112.556 20.23 113 20.362 113.486 20.362C113.858 20.362 114.212 20.278 114.548 20.11C114.884 19.942 115.169 19.72 115.403 19.444ZM118.42 13H120.292V22H118.42V13ZM119.374 11.695C119.086 11.695 118.846 11.602 118.654 11.416C118.462 11.23 118.366 10.996 118.366 10.714C118.366 10.438 118.462 10.207 118.654 10.021C118.846 9.829 119.083 9.733 119.365 9.733C119.641 9.733 119.875 9.829 120.067 10.021C120.259 10.207 120.355 10.438 120.355 10.714C120.355 10.996 120.259 11.23 120.067 11.416C119.881 11.602 119.65 11.695 119.374 11.695ZM129.29 13H131.162V22H129.281L129.209 20.695C128.945 21.157 128.588 21.529 128.138 21.811C127.688 22.093 127.157 22.234 126.545 22.234C125.885 22.234 125.264 22.111 124.682 21.865C124.1 21.613 123.587 21.265 123.143 20.821C122.705 20.377 122.363 19.867 122.117 19.291C121.871 18.709 121.748 18.085 121.748 17.419C121.748 16.777 121.868 16.174 122.108 15.61C122.348 15.04 122.681 14.542 123.107 14.116C123.533 13.69 124.025 13.357 124.583 13.117C125.147 12.871 125.75 12.748 126.392 12.748C127.046 12.748 127.622 12.898 128.12 13.198C128.624 13.492 129.041 13.87 129.371 14.332L129.29 13ZM126.5 20.425C127.028 20.425 127.49 20.296 127.886 20.038C128.282 19.774 128.588 19.42 128.804 18.976C129.026 18.532 129.137 18.04 129.137 17.5C129.137 16.954 129.026 16.459 128.804 16.015C128.582 15.571 128.273 15.22 127.877 14.962C127.487 14.698 127.028 14.566 126.5 14.566C125.978 14.566 125.501 14.698 125.069 14.962C124.637 15.226 124.295 15.58 124.043 16.024C123.791 16.468 123.665 16.96 123.665 17.5C123.665 18.046 123.794 18.541 124.052 18.985C124.316 19.423 124.661 19.774 125.087 20.038C125.519 20.296 125.99 20.425 126.5 20.425ZM133.578 22.234C133.302 22.234 133.068 22.138 132.876 21.946C132.69 21.754 132.597 21.52 132.597 21.244C132.597 20.974 132.69 20.743 132.876 20.551C133.068 20.359 133.302 20.263 133.578 20.263C133.854 20.263 134.088 20.359 134.28 20.551C134.472 20.743 134.568 20.974 134.568 21.244C134.568 21.52 134.472 21.754 134.28 21.946C134.088 22.138 133.854 22.234 133.578 22.234ZM150.592 9.4V11.272H146.578V22H144.706V11.272H140.701V9.4H150.592ZM150.879 18.625V13H152.751V18.166C152.751 18.568 152.85 18.934 153.048 19.264C153.246 19.594 153.51 19.858 153.84 20.056C154.17 20.248 154.533 20.344 154.929 20.344C155.331 20.344 155.694 20.248 156.018 20.056C156.348 19.858 156.609 19.594 156.801 19.264C156.999 18.934 157.098 18.568 157.098 18.166V13H158.97L158.979 22H157.107L157.098 21.028C156.792 21.4 156.411 21.694 155.955 21.91C155.499 22.126 155.01 22.234 154.488 22.234C153.822 22.234 153.216 22.072 152.67 21.748C152.124 21.424 151.689 20.989 151.365 20.443C151.041 19.897 150.879 19.291 150.879 18.625ZM160.784 22V13H162.656V13.954C162.968 13.582 163.352 13.288 163.808 13.072C164.264 12.856 164.756 12.748 165.284 12.748C165.62 12.748 165.953 12.793 166.283 12.883L165.536 14.773C165.302 14.683 165.068 14.638 164.834 14.638C164.438 14.638 164.075 14.737 163.745 14.935C163.415 15.127 163.151 15.388 162.953 15.718C162.755 16.048 162.656 16.414 162.656 16.816V22H160.784ZM175 22H172.84L170.626 18.184L169.177 19.912V22H167.305V8.5H169.177V17.005L172.525 13H174.973L171.904 16.663L175 22ZM179.878 22.234C179.05 22.234 178.294 22.021 177.61 21.595C176.932 21.169 176.389 20.599 175.981 19.885C175.579 19.165 175.378 18.37 175.378 17.5C175.378 16.84 175.495 16.225 175.729 15.655C175.963 15.079 176.284 14.575 176.692 14.143C177.106 13.705 177.586 13.363 178.132 13.117C178.678 12.871 179.26 12.748 179.878 12.748C180.568 12.748 181.201 12.892 181.777 13.18C182.353 13.462 182.845 13.855 183.253 14.359C183.661 14.857 183.961 15.433 184.153 16.087C184.345 16.735 184.402 17.425 184.324 18.157H177.385C177.463 18.571 177.613 18.946 177.835 19.282C178.063 19.612 178.351 19.873 178.699 20.065C179.053 20.257 179.446 20.356 179.878 20.362C180.334 20.362 180.748 20.248 181.12 20.02C181.498 19.792 181.807 19.477 182.047 19.075L183.946 19.516C183.586 20.314 183.043 20.968 182.317 21.478C181.591 21.982 180.778 22.234 179.878 22.234ZM177.322 16.726H182.434C182.374 16.294 182.221 15.904 181.975 15.556C181.735 15.202 181.432 14.923 181.066 14.719C180.706 14.509 180.31 14.404 179.878 14.404C179.452 14.404 179.056 14.506 178.69 14.71C178.33 14.914 178.03 15.193 177.79 15.547C177.556 15.895 177.4 16.288 177.322 16.726ZM191.435 13H193.433L188.501 26.5H186.512L188.141 22L184.91 13H186.953L189.077 19.435L191.435 13Z" fill="#262626"/>
</g>
</svg>
