<svg width="331" height="32" viewBox="0 0 331 32" fill="none" xmlns="http://www.w3.org/2000/svg">
<g opacity="0.7">
<path fill-rule="evenodd" clip-rule="evenodd" d="M3.8335 14.3178C3.8335 9.71789 7.67738 6 12.3269 6C16.9896 6 20.8335 9.71789 20.8335 14.3178C20.8335 16.6357 19.9905 18.7876 18.603 20.6116C17.0723 22.6235 15.1857 24.3765 13.062 25.7524C12.576 26.0704 12.1374 26.0944 11.6039 25.7524C9.46823 24.3765 7.58158 22.6235 6.064 20.6116C4.67548 18.7876 3.8335 16.6357 3.8335 14.3178ZM9.52772 14.5768C9.52772 16.1177 10.7852 17.3297 12.3269 17.3297C13.8697 17.3297 15.1393 16.1177 15.1393 14.5768C15.1393 13.0478 13.8697 11.7768 12.3269 11.7768C10.7852 11.7768 9.52772 13.0478 9.52772 14.5768Z" fill="#25A59E"/>
<path d="M33.4135 22V9.4H37.7515C38.4295 9.4 39.0415 9.568 39.5875 9.904C40.1395 10.24 40.5775 10.693 40.9015 11.263C41.2315 11.833 41.3965 12.463 41.3965 13.153C41.3965 13.855 41.2285 14.491 40.8925 15.061C40.5625 15.625 40.1215 16.075 39.5695 16.411C39.0175 16.747 38.4115 16.915 37.7515 16.915H35.2855V22H33.4135ZM35.2855 15.043H37.5625C37.9225 15.043 38.2495 14.953 38.5435 14.773C38.8435 14.593 39.0805 14.353 39.2545 14.053C39.4345 13.753 39.5245 13.414 39.5245 13.036C39.5245 12.658 39.4345 12.319 39.2545 12.019C39.0805 11.713 38.8435 11.473 38.5435 11.299C38.2495 11.119 37.9225 11.029 37.5625 11.029H35.2855V15.043ZM49.4331 13H51.3051V22H49.4241L49.3521 20.695C49.0881 21.157 48.7311 21.529 48.2811 21.811C47.8311 22.093 47.3001 22.234 46.6881 22.234C46.0281 22.234 45.4071 22.111 44.8251 21.865C44.2431 21.613 43.7301 21.265 43.2861 20.821C42.8481 20.377 42.5061 19.867 42.2601 19.291C42.0141 18.709 41.8911 18.085 41.8911 17.419C41.8911 16.777 42.0111 16.174 42.2511 15.61C42.4911 15.04 42.8241 14.542 43.2501 14.116C43.6761 13.69 44.1681 13.357 44.7261 13.117C45.2901 12.871 45.8931 12.748 46.5351 12.748C47.1891 12.748 47.7651 12.898 48.2631 13.198C48.7671 13.492 49.1841 13.87 49.5141 14.332L49.4331 13ZM46.6431 20.425C47.1711 20.425 47.6331 20.296 48.0291 20.038C48.4251 19.774 48.7311 19.42 48.9471 18.976C49.1691 18.532 49.2801 18.04 49.2801 17.5C49.2801 16.954 49.1691 16.459 48.9471 16.015C48.7251 15.571 48.4161 15.22 48.0201 14.962C47.6301 14.698 47.1711 14.566 46.6431 14.566C46.1211 14.566 45.6441 14.698 45.2121 14.962C44.7801 15.226 44.4381 15.58 44.1861 16.024C43.9341 16.468 43.8081 16.96 43.8081 17.5C43.8081 18.046 43.9371 18.541 44.1951 18.985C44.4591 19.423 44.8041 19.774 45.2301 20.038C45.6621 20.296 46.1331 20.425 46.6431 20.425ZM55.801 22.171C55.327 22.141 54.865 22.045 54.415 21.883C53.965 21.721 53.569 21.502 53.227 21.226C52.891 20.944 52.639 20.614 52.471 20.236L54.064 19.552C54.142 19.714 54.277 19.873 54.469 20.029C54.667 20.185 54.898 20.314 55.162 20.416C55.426 20.512 55.702 20.56 55.99 20.56C56.272 20.56 56.533 20.521 56.773 20.443C57.019 20.359 57.22 20.233 57.376 20.065C57.532 19.897 57.61 19.696 57.61 19.462C57.61 19.198 57.52 18.994 57.34 18.85C57.166 18.7 56.947 18.586 56.683 18.508C56.419 18.43 56.155 18.355 55.891 18.283C55.303 18.151 54.763 17.971 54.271 17.743C53.785 17.509 53.398 17.212 53.11 16.852C52.822 16.486 52.678 16.039 52.678 15.511C52.678 14.935 52.834 14.437 53.146 14.017C53.458 13.591 53.866 13.264 54.37 13.036C54.88 12.808 55.423 12.694 55.999 12.694C56.719 12.694 57.379 12.847 57.979 13.153C58.579 13.459 59.038 13.879 59.356 14.413L57.871 15.295C57.781 15.115 57.646 14.953 57.466 14.809C57.286 14.665 57.082 14.551 56.854 14.467C56.626 14.377 56.389 14.326 56.143 14.314C55.837 14.302 55.552 14.338 55.288 14.422C55.03 14.5 54.823 14.626 54.667 14.8C54.511 14.974 54.433 15.196 54.433 15.466C54.433 15.73 54.526 15.928 54.712 16.06C54.898 16.186 55.132 16.288 55.414 16.366C55.702 16.444 55.996 16.531 56.296 16.627C56.83 16.795 57.331 17.002 57.799 17.248C58.267 17.488 58.645 17.785 58.933 18.139C59.221 18.493 59.359 18.925 59.347 19.435C59.347 19.999 59.176 20.494 58.834 20.92C58.498 21.346 58.06 21.67 57.52 21.892C56.98 22.114 56.407 22.207 55.801 22.171ZM60.5281 18.625V13H62.4001V18.166C62.4001 18.568 62.4991 18.934 62.6971 19.264C62.8951 19.594 63.1591 19.858 63.4891 20.056C63.8191 20.248 64.1821 20.344 64.5781 20.344C64.9801 20.344 65.3431 20.248 65.6671 20.056C65.9971 19.858 66.2581 19.594 66.4501 19.264C66.6481 18.934 66.7471 18.568 66.7471 18.166V13H68.6191L68.6281 22H66.7561L66.7471 21.028C66.4411 21.4 66.0601 21.694 65.6041 21.91C65.1481 22.126 64.6591 22.234 64.1371 22.234C63.4711 22.234 62.8651 22.072 62.3191 21.748C61.7731 21.424 61.3381 20.989 61.0141 20.443C60.6901 19.897 60.5281 19.291 60.5281 18.625ZM70.433 22V13H72.305V13.954C72.617 13.582 73.001 13.288 73.457 13.072C73.913 12.856 74.405 12.748 74.933 12.748C75.269 12.748 75.602 12.793 75.932 12.883L75.185 14.773C74.951 14.683 74.717 14.638 74.483 14.638C74.087 14.638 73.724 14.737 73.394 14.935C73.064 15.127 72.8 15.388 72.602 15.718C72.404 16.048 72.305 16.414 72.305 16.816V22H70.433ZM76.6648 18.625V13H78.5368V18.166C78.5368 18.568 78.6358 18.934 78.8338 19.264C79.0318 19.594 79.2958 19.858 79.6258 20.056C79.9558 20.248 80.3188 20.344 80.7148 20.344C81.1168 20.344 81.4798 20.248 81.8038 20.056C82.1338 19.858 82.3948 19.594 82.5868 19.264C82.7848 18.934 82.8838 18.568 82.8838 18.166V13H84.7558L84.7648 22H82.8928L82.8838 21.028C82.5778 21.4 82.1968 21.694 81.7408 21.91C81.2848 22.126 80.7958 22.234 80.2738 22.234C79.6078 22.234 79.0018 22.072 78.4558 21.748C77.9098 21.424 77.4748 20.989 77.1508 20.443C76.8268 19.897 76.6648 19.291 76.6648 18.625ZM93.4487 13H95.3207V22H93.4397L93.3677 20.695C93.1037 21.157 92.7467 21.529 92.2967 21.811C91.8467 22.093 91.3157 22.234 90.7037 22.234C90.0437 22.234 89.4227 22.111 88.8407 21.865C88.2587 21.613 87.7457 21.265 87.3017 20.821C86.8637 20.377 86.5217 19.867 86.2757 19.291C86.0297 18.709 85.9067 18.085 85.9067 17.419C85.9067 16.777 86.0267 16.174 86.2667 15.61C86.5067 15.04 86.8397 14.542 87.2657 14.116C87.6917 13.69 88.1837 13.357 88.7417 13.117C89.3057 12.871 89.9087 12.748 90.5507 12.748C91.2047 12.748 91.7807 12.898 92.2787 13.198C92.7827 13.492 93.1997 13.87 93.5297 14.332L93.4487 13ZM90.6587 20.425C91.1867 20.425 91.6487 20.296 92.0447 20.038C92.4407 19.774 92.7467 19.42 92.9627 18.976C93.1847 18.532 93.2957 18.04 93.2957 17.5C93.2957 16.954 93.1847 16.459 92.9627 16.015C92.7407 15.571 92.4317 15.22 92.0357 14.962C91.6457 14.698 91.1867 14.566 90.6587 14.566C90.1367 14.566 89.6597 14.698 89.2277 14.962C88.7957 15.226 88.4537 15.58 88.2017 16.024C87.9497 16.468 87.8237 16.96 87.8237 17.5C87.8237 18.046 87.9527 18.541 88.2107 18.985C88.4747 19.423 88.8197 19.774 89.2457 20.038C89.6777 20.296 90.1487 20.425 90.6587 20.425ZM105.217 16.357V22H103.345V16.816C103.345 16.414 103.246 16.048 103.048 15.718C102.856 15.388 102.595 15.127 102.265 14.935C101.941 14.737 101.575 14.638 101.167 14.638C100.771 14.638 100.408 14.737 100.078 14.935C99.7476 15.127 99.4836 15.388 99.2856 15.718C99.0876 16.048 98.9886 16.414 98.9886 16.816V22H97.1166V13H98.9886V13.954C99.3006 13.582 99.6846 13.288 100.141 13.072C100.597 12.856 101.089 12.748 101.617 12.748C102.283 12.748 102.889 12.91 103.435 13.234C103.981 13.558 104.413 13.993 104.731 14.539C105.055 15.085 105.217 15.691 105.217 16.357ZM106.653 23.008L107.211 19.966H109.083L107.895 23.008H106.653ZM115.844 22V9.4H117.716V22H115.844ZM128.244 16.357V22H126.372V16.816C126.372 16.414 126.273 16.048 126.075 15.718C125.883 15.388 125.622 15.127 125.292 14.935C124.968 14.737 124.602 14.638 124.194 14.638C123.798 14.638 123.435 14.737 123.105 14.935C122.775 15.127 122.511 15.388 122.313 15.718C122.115 16.048 122.016 16.414 122.016 16.816V22H120.144V13H122.016V13.954C122.328 13.582 122.712 13.288 123.168 13.072C123.624 12.856 124.116 12.748 124.644 12.748C125.31 12.748 125.916 12.91 126.462 13.234C127.008 13.558 127.44 13.993 127.758 14.539C128.082 15.085 128.244 15.691 128.244 16.357ZM136.876 8.5H138.748V22H136.876V20.677C136.582 21.145 136.198 21.523 135.724 21.811C135.25 22.093 134.695 22.234 134.059 22.234C133.405 22.234 132.793 22.111 132.223 21.865C131.653 21.619 131.149 21.28 130.711 20.848C130.279 20.41 129.94 19.906 129.694 19.336C129.448 18.766 129.325 18.154 129.325 17.5C129.325 16.846 129.448 16.234 129.694 15.664C129.94 15.088 130.279 14.584 130.711 14.152C131.149 13.714 131.653 13.372 132.223 13.126C132.793 12.88 133.405 12.757 134.059 12.757C134.695 12.757 135.25 12.901 135.724 13.189C136.198 13.471 136.582 13.843 136.876 14.305V8.5ZM134.077 20.425C134.605 20.425 135.067 20.296 135.463 20.038C135.859 19.774 136.165 19.42 136.381 18.976C136.603 18.532 136.714 18.04 136.714 17.5C136.714 16.954 136.603 16.459 136.381 16.015C136.159 15.571 135.85 15.22 135.454 14.962C135.064 14.698 134.605 14.566 134.077 14.566C133.555 14.566 133.078 14.698 132.646 14.962C132.22 15.226 131.878 15.58 131.62 16.024C131.368 16.468 131.242 16.96 131.242 17.5C131.242 18.046 131.371 18.541 131.629 18.985C131.893 19.423 132.238 19.774 132.664 20.038C133.096 20.296 133.567 20.425 134.077 20.425ZM144.741 22.234C143.913 22.234 143.157 22.021 142.473 21.595C141.795 21.169 141.252 20.599 140.844 19.885C140.442 19.165 140.241 18.37 140.241 17.5C140.241 16.84 140.358 16.225 140.592 15.655C140.826 15.079 141.147 14.575 141.555 14.143C141.969 13.705 142.449 13.363 142.995 13.117C143.541 12.871 144.123 12.748 144.741 12.748C145.569 12.748 146.322 12.961 147 13.387C147.684 13.813 148.227 14.386 148.629 15.106C149.037 15.826 149.241 16.624 149.241 17.5C149.241 18.154 149.124 18.766 148.89 19.336C148.656 19.906 148.332 20.41 147.918 20.848C147.51 21.28 147.033 21.619 146.487 21.865C145.947 22.111 145.365 22.234 144.741 22.234ZM144.741 20.362C145.239 20.362 145.686 20.23 146.082 19.966C146.478 19.702 146.79 19.354 147.018 18.922C147.252 18.484 147.369 18.01 147.369 17.5C147.369 16.978 147.249 16.498 147.009 16.06C146.775 15.622 146.46 15.274 146.064 15.016C145.668 14.752 145.227 14.62 144.741 14.62C144.249 14.62 143.802 14.752 143.4 15.016C143.004 15.28 142.689 15.631 142.455 16.069C142.227 16.507 142.113 16.984 142.113 17.5C142.113 18.034 142.233 18.517 142.473 18.949C142.713 19.381 143.031 19.726 143.427 19.984C143.829 20.236 144.267 20.362 144.741 20.362ZM158.795 16.357V22H156.923V16.816C156.923 16.414 156.824 16.048 156.626 15.718C156.434 15.388 156.173 15.127 155.843 14.935C155.519 14.737 155.153 14.638 154.745 14.638C154.349 14.638 153.986 14.737 153.656 14.935C153.326 15.127 153.062 15.388 152.864 15.718C152.666 16.048 152.567 16.414 152.567 16.816V22H150.695V13H152.567V13.954C152.879 13.582 153.263 13.288 153.719 13.072C154.175 12.856 154.667 12.748 155.195 12.748C155.861 12.748 156.467 12.91 157.013 13.234C157.559 13.558 157.991 13.993 158.309 14.539C158.633 15.085 158.795 15.691 158.795 16.357ZM164.375 22.234C163.547 22.234 162.791 22.021 162.107 21.595C161.429 21.169 160.886 20.599 160.478 19.885C160.076 19.165 159.875 18.37 159.875 17.5C159.875 16.84 159.992 16.225 160.226 15.655C160.46 15.079 160.781 14.575 161.189 14.143C161.603 13.705 162.083 13.363 162.629 13.117C163.175 12.871 163.757 12.748 164.375 12.748C165.065 12.748 165.698 12.892 166.274 13.18C166.85 13.462 167.342 13.855 167.75 14.359C168.158 14.857 168.458 15.433 168.65 16.087C168.842 16.735 168.899 17.425 168.821 18.157H161.882C161.96 18.571 162.11 18.946 162.332 19.282C162.56 19.612 162.848 19.873 163.196 20.065C163.55 20.257 163.943 20.356 164.375 20.362C164.831 20.362 165.245 20.248 165.617 20.02C165.995 19.792 166.304 19.477 166.544 19.075L168.443 19.516C168.083 20.314 167.54 20.968 166.814 21.478C166.088 21.982 165.275 22.234 164.375 22.234ZM161.819 16.726H166.931C166.871 16.294 166.718 15.904 166.472 15.556C166.232 15.202 165.929 14.923 165.563 14.719C165.203 14.509 164.807 14.404 164.375 14.404C163.949 14.404 163.553 14.506 163.187 14.71C162.827 14.914 162.527 15.193 162.287 15.547C162.053 15.895 161.897 16.288 161.819 16.726ZM173.047 22.171C172.573 22.141 172.111 22.045 171.661 21.883C171.211 21.721 170.815 21.502 170.473 21.226C170.137 20.944 169.885 20.614 169.717 20.236L171.31 19.552C171.388 19.714 171.523 19.873 171.715 20.029C171.913 20.185 172.144 20.314 172.408 20.416C172.672 20.512 172.948 20.56 173.236 20.56C173.518 20.56 173.779 20.521 174.019 20.443C174.265 20.359 174.466 20.233 174.622 20.065C174.778 19.897 174.856 19.696 174.856 19.462C174.856 19.198 174.766 18.994 174.586 18.85C174.412 18.7 174.193 18.586 173.929 18.508C173.665 18.43 173.401 18.355 173.137 18.283C172.549 18.151 172.009 17.971 171.517 17.743C171.031 17.509 170.644 17.212 170.356 16.852C170.068 16.486 169.924 16.039 169.924 15.511C169.924 14.935 170.08 14.437 170.392 14.017C170.704 13.591 171.112 13.264 171.616 13.036C172.126 12.808 172.669 12.694 173.245 12.694C173.965 12.694 174.625 12.847 175.225 13.153C175.825 13.459 176.284 13.879 176.602 14.413L175.117 15.295C175.027 15.115 174.892 14.953 174.712 14.809C174.532 14.665 174.328 14.551 174.1 14.467C173.872 14.377 173.635 14.326 173.389 14.314C173.083 14.302 172.798 14.338 172.534 14.422C172.276 14.5 172.069 14.626 171.913 14.8C171.757 14.974 171.679 15.196 171.679 15.466C171.679 15.73 171.772 15.928 171.958 16.06C172.144 16.186 172.378 16.288 172.66 16.366C172.948 16.444 173.242 16.531 173.542 16.627C174.076 16.795 174.577 17.002 175.045 17.248C175.513 17.488 175.891 17.785 176.179 18.139C176.467 18.493 176.605 18.925 176.593 19.435C176.593 19.999 176.422 20.494 176.08 20.92C175.744 21.346 175.306 21.67 174.766 21.892C174.226 22.114 173.653 22.207 173.047 22.171ZM177.976 13H179.848V22H177.976V13ZM178.93 11.695C178.642 11.695 178.402 11.602 178.21 11.416C178.018 11.23 177.922 10.996 177.922 10.714C177.922 10.438 178.018 10.207 178.21 10.021C178.402 9.829 178.639 9.733 178.921 9.733C179.197 9.733 179.431 9.829 179.623 10.021C179.815 10.207 179.911 10.438 179.911 10.714C179.911 10.996 179.815 11.23 179.623 11.416C179.437 11.602 179.206 11.695 178.93 11.695ZM188.845 13H190.717V22H188.836L188.764 20.695C188.5 21.157 188.143 21.529 187.693 21.811C187.243 22.093 186.712 22.234 186.1 22.234C185.44 22.234 184.819 22.111 184.237 21.865C183.655 21.613 183.142 21.265 182.698 20.821C182.26 20.377 181.918 19.867 181.672 19.291C181.426 18.709 181.303 18.085 181.303 17.419C181.303 16.777 181.423 16.174 181.663 15.61C181.903 15.04 182.236 14.542 182.662 14.116C183.088 13.69 183.58 13.357 184.138 13.117C184.702 12.871 185.305 12.748 185.947 12.748C186.601 12.748 187.177 12.898 187.675 13.198C188.179 13.492 188.596 13.87 188.926 14.332L188.845 13ZM186.055 20.425C186.583 20.425 187.045 20.296 187.441 20.038C187.837 19.774 188.143 19.42 188.359 18.976C188.581 18.532 188.692 18.04 188.692 17.5C188.692 16.954 188.581 16.459 188.359 16.015C188.137 15.571 187.828 15.22 187.432 14.962C187.042 14.698 186.583 14.566 186.055 14.566C185.533 14.566 185.056 14.698 184.624 14.962C184.192 15.226 183.85 15.58 183.598 16.024C183.346 16.468 183.22 16.96 183.22 17.5C183.22 18.046 183.349 18.541 183.607 18.985C183.871 19.423 184.216 19.774 184.642 20.038C185.074 20.296 185.545 20.425 186.055 20.425Z" fill="#262626"/>
</g>
</svg>
