<svg width="332" height="32" viewBox="0 0 332 32" fill="none" xmlns="http://www.w3.org/2000/svg">
<g opacity="0.7">
<path fill-rule="evenodd" clip-rule="evenodd" d="M4.1665 14.3178C4.1665 9.71789 8.01039 6 12.6599 6C17.3226 6 21.1665 9.71789 21.1665 14.3178C21.1665 16.6357 20.3235 18.7876 18.936 20.6116C17.4053 22.6235 15.5187 24.3765 13.395 25.7524C12.909 26.0704 12.4704 26.0944 11.937 25.7524C9.80124 24.3765 7.91459 22.6235 6.397 20.6116C5.00849 18.7876 4.1665 16.6357 4.1665 14.3178ZM9.86073 14.5768C9.86073 16.1177 11.1182 17.3297 12.6599 17.3297C14.2027 17.3297 15.4723 16.1177 15.4723 14.5768C15.4723 13.0478 14.2027 11.7768 12.6599 11.7768C11.1182 11.7768 9.86073 13.0478 9.86073 14.5768Z" fill="#25A59E"/>
<path d="M35.4745 22.234C35.0305 22.234 34.5955 22.159 34.1695 22.009C33.7495 21.859 33.3685 21.637 33.0265 21.343L34.2235 19.903C34.3735 20.029 34.5535 20.137 34.7635 20.227C34.9735 20.317 35.2105 20.362 35.4745 20.362C35.8345 20.362 36.1615 20.269 36.4555 20.083C36.7555 19.891 36.9955 19.642 37.1755 19.336C37.3555 19.024 37.4455 18.691 37.4455 18.337V9.4H39.3175V18.337C39.3175 19.039 39.1435 19.687 38.7955 20.281C38.4475 20.869 37.9825 21.343 37.4005 21.703C36.8245 22.057 36.1825 22.234 35.4745 22.234ZM48.4829 13H50.3549V22H48.4739L48.4019 20.695C48.1379 21.157 47.7809 21.529 47.3309 21.811C46.8809 22.093 46.3499 22.234 45.7379 22.234C45.0779 22.234 44.4569 22.111 43.8749 21.865C43.2929 21.613 42.7799 21.265 42.3359 20.821C41.8979 20.377 41.5559 19.867 41.3099 19.291C41.0639 18.709 40.9409 18.085 40.9409 17.419C40.9409 16.777 41.0609 16.174 41.3009 15.61C41.5409 15.04 41.8739 14.542 42.2999 14.116C42.7259 13.69 43.2179 13.357 43.7759 13.117C44.3399 12.871 44.9429 12.748 45.5849 12.748C46.2389 12.748 46.8149 12.898 47.3129 13.198C47.8169 13.492 48.2339 13.87 48.5639 14.332L48.4829 13ZM45.6929 20.425C46.2209 20.425 46.6829 20.296 47.0789 20.038C47.4749 19.774 47.7809 19.42 47.9969 18.976C48.2189 18.532 48.3299 18.04 48.3299 17.5C48.3299 16.954 48.2189 16.459 47.9969 16.015C47.7749 15.571 47.4659 15.22 47.0699 14.962C46.6799 14.698 46.2209 14.566 45.6929 14.566C45.1709 14.566 44.6939 14.698 44.2619 14.962C43.8299 15.226 43.4879 15.58 43.2359 16.024C42.9839 16.468 42.8579 16.96 42.8579 17.5C42.8579 18.046 42.9869 18.541 43.2449 18.985C43.5089 19.423 43.8539 19.774 44.2799 20.038C44.7119 20.296 45.1829 20.425 45.6929 20.425ZM56.1548 22H54.2918L51.2768 13H53.1128L55.2368 19.318L57.3428 13H59.2328L61.3388 19.318L63.4538 13H65.2898L62.2838 22H60.4028L58.2788 15.637L56.1548 22ZM73.3383 13H75.2103V22H73.3293L73.2573 20.695C72.9933 21.157 72.6363 21.529 72.1863 21.811C71.7363 22.093 71.2053 22.234 70.5933 22.234C69.9333 22.234 69.3123 22.111 68.7303 21.865C68.1483 21.613 67.6353 21.265 67.1913 20.821C66.7533 20.377 66.4113 19.867 66.1653 19.291C65.9193 18.709 65.7963 18.085 65.7963 17.419C65.7963 16.777 65.9163 16.174 66.1563 15.61C66.3963 15.04 66.7293 14.542 67.1553 14.116C67.5813 13.69 68.0733 13.357 68.6313 13.117C69.1953 12.871 69.7983 12.748 70.4403 12.748C71.0943 12.748 71.6703 12.898 72.1683 13.198C72.6723 13.492 73.0893 13.87 73.4193 14.332L73.3383 13ZM70.5483 20.425C71.0763 20.425 71.5383 20.296 71.9343 20.038C72.3303 19.774 72.6363 19.42 72.8523 18.976C73.0743 18.532 73.1853 18.04 73.1853 17.5C73.1853 16.954 73.0743 16.459 72.8523 16.015C72.6303 15.571 72.3213 15.22 71.9253 14.962C71.5353 14.698 71.0763 14.566 70.5483 14.566C70.0263 14.566 69.5493 14.698 69.1173 14.962C68.6853 15.226 68.3433 15.58 68.0913 16.024C67.8393 16.468 67.7133 16.96 67.7133 17.5C67.7133 18.046 67.8423 18.541 68.1003 18.985C68.3643 19.423 68.7093 19.774 69.1353 20.038C69.5673 20.296 70.0383 20.425 70.5483 20.425ZM90.8615 9.4V11.272H86.8475V22H84.9755V11.272H80.9705V9.4H90.8615ZM95.2573 22.234C94.4293 22.234 93.6733 22.021 92.9893 21.595C92.3113 21.169 91.7683 20.599 91.3603 19.885C90.9583 19.165 90.7573 18.37 90.7573 17.5C90.7573 16.84 90.8743 16.225 91.1083 15.655C91.3423 15.079 91.6633 14.575 92.0713 14.143C92.4853 13.705 92.9653 13.363 93.5113 13.117C94.0573 12.871 94.6393 12.748 95.2573 12.748C95.9473 12.748 96.5803 12.892 97.1563 13.18C97.7323 13.462 98.2243 13.855 98.6323 14.359C99.0403 14.857 99.3403 15.433 99.5323 16.087C99.7243 16.735 99.7813 17.425 99.7033 18.157H92.7643C92.8423 18.571 92.9923 18.946 93.2143 19.282C93.4423 19.612 93.7303 19.873 94.0783 20.065C94.4323 20.257 94.8253 20.356 95.2573 20.362C95.7133 20.362 96.1273 20.248 96.4993 20.02C96.8773 19.792 97.1863 19.477 97.4263 19.075L99.3253 19.516C98.9653 20.314 98.4223 20.968 97.6963 21.478C96.9703 21.982 96.1573 22.234 95.2573 22.234ZM92.7013 16.726H97.8133C97.7533 16.294 97.6003 15.904 97.3543 15.556C97.1143 15.202 96.8113 14.923 96.4453 14.719C96.0853 14.509 95.6893 14.404 95.2573 14.404C94.8313 14.404 94.4353 14.506 94.0693 14.71C93.7093 14.914 93.4093 15.193 93.1693 15.547C92.9353 15.895 92.7793 16.288 92.7013 16.726ZM109.294 16.357V22H107.422V16.816C107.422 16.414 107.323 16.048 107.125 15.718C106.933 15.388 106.672 15.127 106.342 14.935C106.018 14.737 105.652 14.638 105.244 14.638C104.848 14.638 104.485 14.737 104.155 14.935C103.825 15.127 103.561 15.388 103.363 15.718C103.165 16.048 103.066 16.414 103.066 16.816V22H101.194V13H103.066V13.954C103.378 13.582 103.762 13.288 104.218 13.072C104.674 12.856 105.166 12.748 105.694 12.748C106.36 12.748 106.966 12.91 107.512 13.234C108.058 13.558 108.49 13.993 108.808 14.539C109.132 15.085 109.294 15.691 109.294 16.357ZM117.763 13H119.635V22.234C119.635 22.852 119.503 23.422 119.239 23.944C118.981 24.466 118.63 24.916 118.186 25.294C117.742 25.678 117.232 25.975 116.656 26.185C116.086 26.395 115.489 26.5 114.865 26.5C114.235 26.5 113.629 26.365 113.047 26.095C112.465 25.831 111.952 25.471 111.508 25.015C111.07 24.559 110.743 24.043 110.527 23.467L112.246 22.693C112.366 23.065 112.558 23.395 112.822 23.683C113.092 23.971 113.404 24.199 113.758 24.367C114.118 24.535 114.487 24.619 114.865 24.619C115.237 24.619 115.594 24.559 115.936 24.439C116.284 24.325 116.593 24.163 116.863 23.953C117.139 23.743 117.358 23.491 117.52 23.197C117.682 22.903 117.763 22.582 117.763 22.234V20.713C117.469 21.169 117.091 21.538 116.629 21.82C116.167 22.096 115.63 22.234 115.018 22.234C114.382 22.234 113.782 22.111 113.218 21.865C112.654 21.619 112.159 21.28 111.733 20.848C111.307 20.41 110.974 19.906 110.734 19.336C110.494 18.766 110.374 18.154 110.374 17.5C110.374 16.846 110.494 16.234 110.734 15.664C110.974 15.088 111.307 14.584 111.733 14.152C112.159 13.714 112.654 13.372 113.218 13.126C113.782 12.88 114.382 12.757 115.018 12.757C115.63 12.757 116.167 12.898 116.629 13.18C117.091 13.456 117.469 13.825 117.763 14.287V13ZM115.036 20.425C115.558 20.425 116.014 20.293 116.404 20.029C116.794 19.759 117.097 19.402 117.313 18.958C117.529 18.514 117.637 18.028 117.637 17.5C117.637 16.96 117.526 16.471 117.304 16.033C117.088 15.589 116.785 15.235 116.395 14.971C116.005 14.701 115.552 14.566 115.036 14.566C114.532 14.566 114.07 14.698 113.65 14.962C113.236 15.226 112.906 15.58 112.66 16.024C112.414 16.468 112.291 16.96 112.291 17.5C112.291 18.04 112.414 18.532 112.66 18.976C112.912 19.42 113.245 19.774 113.659 20.038C114.079 20.296 114.538 20.425 115.036 20.425ZM128.639 13H130.511V22H128.63L128.558 20.695C128.294 21.157 127.937 21.529 127.487 21.811C127.037 22.093 126.506 22.234 125.894 22.234C125.234 22.234 124.613 22.111 124.031 21.865C123.449 21.613 122.936 21.265 122.492 20.821C122.054 20.377 121.712 19.867 121.466 19.291C121.22 18.709 121.097 18.085 121.097 17.419C121.097 16.777 121.217 16.174 121.457 15.61C121.697 15.04 122.03 14.542 122.456 14.116C122.882 13.69 123.374 13.357 123.932 13.117C124.496 12.871 125.099 12.748 125.741 12.748C126.395 12.748 126.971 12.898 127.469 13.198C127.973 13.492 128.39 13.87 128.72 14.332L128.639 13ZM125.849 20.425C126.377 20.425 126.839 20.296 127.235 20.038C127.631 19.774 127.937 19.42 128.153 18.976C128.375 18.532 128.486 18.04 128.486 17.5C128.486 16.954 128.375 16.459 128.153 16.015C127.931 15.571 127.622 15.22 127.226 14.962C126.836 14.698 126.377 14.566 125.849 14.566C125.327 14.566 124.85 14.698 124.418 14.962C123.986 15.226 123.644 15.58 123.392 16.024C123.14 16.468 123.014 16.96 123.014 17.5C123.014 18.046 123.143 18.541 123.401 18.985C123.665 19.423 124.01 19.774 124.436 20.038C124.868 20.296 125.339 20.425 125.849 20.425ZM140.477 16.357V22H138.605V16.816C138.605 16.414 138.506 16.048 138.308 15.718C138.116 15.388 137.855 15.127 137.525 14.935C137.201 14.737 136.835 14.638 136.427 14.638C136.031 14.638 135.668 14.737 135.338 14.935C135.008 15.127 134.744 15.388 134.546 15.718C134.348 16.048 134.249 16.414 134.249 16.816V22H132.377V8.5H134.249V13.954C134.561 13.582 134.945 13.288 135.401 13.072C135.857 12.856 136.349 12.748 136.877 12.748C137.543 12.748 138.149 12.91 138.695 13.234C139.241 13.558 139.673 13.993 139.991 14.539C140.315 15.085 140.477 15.691 140.477 16.357ZM141.914 23.008L142.472 19.966H144.344L143.156 23.008H141.914ZM151.104 22V9.4H152.976V22H151.104ZM163.505 16.357V22H161.633V16.816C161.633 16.414 161.534 16.048 161.336 15.718C161.144 15.388 160.883 15.127 160.553 14.935C160.229 14.737 159.863 14.638 159.455 14.638C159.059 14.638 158.696 14.737 158.366 14.935C158.036 15.127 157.772 15.388 157.574 15.718C157.376 16.048 157.277 16.414 157.277 16.816V22H155.405V13H157.277V13.954C157.589 13.582 157.973 13.288 158.429 13.072C158.885 12.856 159.377 12.748 159.905 12.748C160.571 12.748 161.177 12.91 161.723 13.234C162.269 13.558 162.701 13.993 163.019 14.539C163.343 15.085 163.505 15.691 163.505 16.357ZM172.136 8.5H174.008V22H172.136V20.677C171.842 21.145 171.458 21.523 170.984 21.811C170.51 22.093 169.955 22.234 169.319 22.234C168.665 22.234 168.053 22.111 167.483 21.865C166.913 21.619 166.409 21.28 165.971 20.848C165.539 20.41 165.2 19.906 164.954 19.336C164.708 18.766 164.585 18.154 164.585 17.5C164.585 16.846 164.708 16.234 164.954 15.664C165.2 15.088 165.539 14.584 165.971 14.152C166.409 13.714 166.913 13.372 167.483 13.126C168.053 12.88 168.665 12.757 169.319 12.757C169.955 12.757 170.51 12.901 170.984 13.189C171.458 13.471 171.842 13.843 172.136 14.305V8.5ZM169.337 20.425C169.865 20.425 170.327 20.296 170.723 20.038C171.119 19.774 171.425 19.42 171.641 18.976C171.863 18.532 171.974 18.04 171.974 17.5C171.974 16.954 171.863 16.459 171.641 16.015C171.419 15.571 171.11 15.22 170.714 14.962C170.324 14.698 169.865 14.566 169.337 14.566C168.815 14.566 168.338 14.698 167.906 14.962C167.48 15.226 167.138 15.58 166.88 16.024C166.628 16.468 166.502 16.96 166.502 17.5C166.502 18.046 166.631 18.541 166.889 18.985C167.153 19.423 167.498 19.774 167.924 20.038C168.356 20.296 168.827 20.425 169.337 20.425ZM180.001 22.234C179.173 22.234 178.417 22.021 177.733 21.595C177.055 21.169 176.512 20.599 176.104 19.885C175.702 19.165 175.501 18.37 175.501 17.5C175.501 16.84 175.618 16.225 175.852 15.655C176.086 15.079 176.407 14.575 176.815 14.143C177.229 13.705 177.709 13.363 178.255 13.117C178.801 12.871 179.383 12.748 180.001 12.748C180.829 12.748 181.582 12.961 182.26 13.387C182.944 13.813 183.487 14.386 183.889 15.106C184.297 15.826 184.501 16.624 184.501 17.5C184.501 18.154 184.384 18.766 184.15 19.336C183.916 19.906 183.592 20.41 183.178 20.848C182.77 21.28 182.293 21.619 181.747 21.865C181.207 22.111 180.625 22.234 180.001 22.234ZM180.001 20.362C180.499 20.362 180.946 20.23 181.342 19.966C181.738 19.702 182.05 19.354 182.278 18.922C182.512 18.484 182.629 18.01 182.629 17.5C182.629 16.978 182.509 16.498 182.269 16.06C182.035 15.622 181.72 15.274 181.324 15.016C180.928 14.752 180.487 14.62 180.001 14.62C179.509 14.62 179.062 14.752 178.66 15.016C178.264 15.28 177.949 15.631 177.715 16.069C177.487 16.507 177.373 16.984 177.373 17.5C177.373 18.034 177.493 18.517 177.733 18.949C177.973 19.381 178.291 19.726 178.687 19.984C179.089 20.236 179.527 20.362 180.001 20.362ZM194.055 16.357V22H192.183V16.816C192.183 16.414 192.084 16.048 191.886 15.718C191.694 15.388 191.433 15.127 191.103 14.935C190.779 14.737 190.413 14.638 190.005 14.638C189.609 14.638 189.246 14.737 188.916 14.935C188.586 15.127 188.322 15.388 188.124 15.718C187.926 16.048 187.827 16.414 187.827 16.816V22H185.955V13H187.827V13.954C188.139 13.582 188.523 13.288 188.979 13.072C189.435 12.856 189.927 12.748 190.455 12.748C191.121 12.748 191.727 12.91 192.273 13.234C192.819 13.558 193.251 13.993 193.569 14.539C193.893 15.085 194.055 15.691 194.055 16.357ZM199.636 22.234C198.808 22.234 198.052 22.021 197.368 21.595C196.69 21.169 196.147 20.599 195.739 19.885C195.337 19.165 195.136 18.37 195.136 17.5C195.136 16.84 195.253 16.225 195.487 15.655C195.721 15.079 196.042 14.575 196.45 14.143C196.864 13.705 197.344 13.363 197.89 13.117C198.436 12.871 199.018 12.748 199.636 12.748C200.326 12.748 200.959 12.892 201.535 13.18C202.111 13.462 202.603 13.855 203.011 14.359C203.419 14.857 203.719 15.433 203.911 16.087C204.103 16.735 204.16 17.425 204.082 18.157H197.143C197.221 18.571 197.371 18.946 197.593 19.282C197.821 19.612 198.109 19.873 198.457 20.065C198.811 20.257 199.204 20.356 199.636 20.362C200.092 20.362 200.506 20.248 200.878 20.02C201.256 19.792 201.565 19.477 201.805 19.075L203.704 19.516C203.344 20.314 202.801 20.968 202.075 21.478C201.349 21.982 200.536 22.234 199.636 22.234ZM197.08 16.726H202.192C202.132 16.294 201.979 15.904 201.733 15.556C201.493 15.202 201.19 14.923 200.824 14.719C200.464 14.509 200.068 14.404 199.636 14.404C199.21 14.404 198.814 14.506 198.448 14.71C198.088 14.914 197.788 15.193 197.548 15.547C197.314 15.895 197.158 16.288 197.08 16.726ZM208.308 22.171C207.834 22.141 207.372 22.045 206.922 21.883C206.472 21.721 206.076 21.502 205.734 21.226C205.398 20.944 205.146 20.614 204.978 20.236L206.571 19.552C206.649 19.714 206.784 19.873 206.976 20.029C207.174 20.185 207.405 20.314 207.669 20.416C207.933 20.512 208.209 20.56 208.497 20.56C208.779 20.56 209.04 20.521 209.28 20.443C209.526 20.359 209.727 20.233 209.883 20.065C210.039 19.897 210.117 19.696 210.117 19.462C210.117 19.198 210.027 18.994 209.847 18.85C209.673 18.7 209.454 18.586 209.19 18.508C208.926 18.43 208.662 18.355 208.398 18.283C207.81 18.151 207.27 17.971 206.778 17.743C206.292 17.509 205.905 17.212 205.617 16.852C205.329 16.486 205.185 16.039 205.185 15.511C205.185 14.935 205.341 14.437 205.653 14.017C205.965 13.591 206.373 13.264 206.877 13.036C207.387 12.808 207.93 12.694 208.506 12.694C209.226 12.694 209.886 12.847 210.486 13.153C211.086 13.459 211.545 13.879 211.863 14.413L210.378 15.295C210.288 15.115 210.153 14.953 209.973 14.809C209.793 14.665 209.589 14.551 209.361 14.467C209.133 14.377 208.896 14.326 208.65 14.314C208.344 14.302 208.059 14.338 207.795 14.422C207.537 14.5 207.33 14.626 207.174 14.8C207.018 14.974 206.94 15.196 206.94 15.466C206.94 15.73 207.033 15.928 207.219 16.06C207.405 16.186 207.639 16.288 207.921 16.366C208.209 16.444 208.503 16.531 208.803 16.627C209.337 16.795 209.838 17.002 210.306 17.248C210.774 17.488 211.152 17.785 211.44 18.139C211.728 18.493 211.866 18.925 211.854 19.435C211.854 19.999 211.683 20.494 211.341 20.92C211.005 21.346 210.567 21.67 210.027 21.892C209.487 22.114 208.914 22.207 208.308 22.171ZM213.237 13H215.109V22H213.237V13ZM214.191 11.695C213.903 11.695 213.663 11.602 213.471 11.416C213.279 11.23 213.183 10.996 213.183 10.714C213.183 10.438 213.279 10.207 213.471 10.021C213.663 9.829 213.9 9.733 214.182 9.733C214.458 9.733 214.692 9.829 214.884 10.021C215.076 10.207 215.172 10.438 215.172 10.714C215.172 10.996 215.076 11.23 214.884 11.416C214.698 11.602 214.467 11.695 214.191 11.695ZM224.106 13H225.978V22H224.097L224.025 20.695C223.761 21.157 223.404 21.529 222.954 21.811C222.504 22.093 221.973 22.234 221.361 22.234C220.701 22.234 220.08 22.111 219.498 21.865C218.916 21.613 218.403 21.265 217.959 20.821C217.521 20.377 217.179 19.867 216.933 19.291C216.687 18.709 216.564 18.085 216.564 17.419C216.564 16.777 216.684 16.174 216.924 15.61C217.164 15.04 217.497 14.542 217.923 14.116C218.349 13.69 218.841 13.357 219.399 13.117C219.963 12.871 220.566 12.748 221.208 12.748C221.862 12.748 222.438 12.898 222.936 13.198C223.44 13.492 223.857 13.87 224.187 14.332L224.106 13ZM221.316 20.425C221.844 20.425 222.306 20.296 222.702 20.038C223.098 19.774 223.404 19.42 223.62 18.976C223.842 18.532 223.953 18.04 223.953 17.5C223.953 16.954 223.842 16.459 223.62 16.015C223.398 15.571 223.089 15.22 222.693 14.962C222.303 14.698 221.844 14.566 221.316 14.566C220.794 14.566 220.317 14.698 219.885 14.962C219.453 15.226 219.111 15.58 218.859 16.024C218.607 16.468 218.481 16.96 218.481 17.5C218.481 18.046 218.61 18.541 218.868 18.985C219.132 19.423 219.477 19.774 219.903 20.038C220.335 20.296 220.806 20.425 221.316 20.425Z" fill="#262626"/>
</g>
</svg>
